<mxfile host="app.diagrams.net" agent="Mozilla/5.0 (Windows NT 10.0; Win64; x64) AppleWebKit/537.36 (KHTML, like Gecko) Chrome/131.0.0.0 Safari/537.36" version="25.0.3">
  <diagram name="Page-1" id="ylDPdNrXPn1Qpc4dRx3r">
    <mxGraphModel dx="703" dy="401" grid="1" gridSize="10" guides="1" tooltips="1" connect="1" arrows="1" fold="1" page="1" pageScale="1" pageWidth="827" pageHeight="583" math="0" shadow="0">
      <root>
        <mxCell id="0" />
        <mxCell id="1" parent="0" />
        <mxCell id="RaDb09PuYdzInAXhq24M-2" value="" style="rounded=0;whiteSpace=wrap;html=1;labelBackgroundColor=none;" parent="1" vertex="1">
          <mxGeometry x="360" y="160" width="90" height="180" as="geometry" />
        </mxCell>
        <mxCell id="RaDb09PuYdzInAXhq24M-3" value="" style="whiteSpace=wrap;html=1;aspect=fixed;labelBackgroundColor=none;rounded=0;" parent="1" vertex="1">
          <mxGeometry x="500" y="191" width="50" height="50" as="geometry" />
        </mxCell>
        <mxCell id="RaDb09PuYdzInAXhq24M-4" value="" style="rounded=0;whiteSpace=wrap;html=1;labelBackgroundColor=none;" parent="1" vertex="1">
          <mxGeometry x="600" y="160" width="60" height="100" as="geometry" />
        </mxCell>
        <UserObject label="Rx" placeholders="1" name="Variable" id="RaDb09PuYdzInAXhq24M-6">
          <mxCell style="text;html=1;strokeColor=none;fillColor=none;align=center;verticalAlign=middle;whiteSpace=wrap;overflow=hidden;fontSize=5;labelBackgroundColor=none;rounded=0;" parent="1" vertex="1">
            <mxGeometry x="430" y="201" width="20" height="10" as="geometry" />
          </mxCell>
        </UserObject>
        <UserObject label="Tx" placeholders="1" name="Variable" id="RaDb09PuYdzInAXhq24M-7">
          <mxCell style="text;html=1;strokeColor=none;fillColor=none;align=center;verticalAlign=middle;whiteSpace=wrap;overflow=hidden;fontSize=5;labelBackgroundColor=none;rounded=0;" parent="1" vertex="1">
            <mxGeometry x="430" y="211" width="20" height="10" as="geometry" />
          </mxCell>
        </UserObject>
        <UserObject label="Rx" placeholders="1" name="Variable" id="RaDb09PuYdzInAXhq24M-9">
          <mxCell style="text;html=1;strokeColor=none;fillColor=none;align=center;verticalAlign=middle;whiteSpace=wrap;overflow=hidden;fontSize=5;labelBackgroundColor=none;rounded=0;" parent="1" vertex="1">
            <mxGeometry x="600" y="211" width="20" height="10" as="geometry" />
          </mxCell>
        </UserObject>
        <UserObject label="Tx" placeholders="1" name="Variable" id="RaDb09PuYdzInAXhq24M-10">
          <mxCell style="text;html=1;strokeColor=none;fillColor=none;align=center;verticalAlign=middle;whiteSpace=wrap;overflow=hidden;fontSize=5;labelBackgroundColor=none;rounded=0;" parent="1" vertex="1">
            <mxGeometry x="600" y="201" width="20" height="10" as="geometry" />
          </mxCell>
        </UserObject>
        <UserObject label="5V" placeholders="1" name="Variable" id="RaDb09PuYdzInAXhq24M-11">
          <mxCell style="text;html=1;strokeColor=none;fillColor=none;align=center;verticalAlign=middle;whiteSpace=wrap;overflow=hidden;fontSize=5;labelBackgroundColor=none;rounded=0;" parent="1" vertex="1">
            <mxGeometry x="500" y="191" width="20" height="10" as="geometry" />
          </mxCell>
        </UserObject>
        <UserObject label="3.3V" placeholders="1" name="Variable" id="RaDb09PuYdzInAXhq24M-12">
          <mxCell style="text;html=1;strokeColor=none;fillColor=none;align=center;verticalAlign=middle;whiteSpace=wrap;overflow=hidden;fontSize=5;labelBackgroundColor=none;rounded=0;" parent="1" vertex="1">
            <mxGeometry x="530" y="191" width="20" height="10" as="geometry" />
          </mxCell>
        </UserObject>
        <mxCell id="RaDb09PuYdzInAXhq24M-13" value="" style="endArrow=classic;html=1;rounded=0;exitX=1;exitY=0.5;exitDx=0;exitDy=0;labelBackgroundColor=none;fontColor=default;" parent="1" edge="1">
          <mxGeometry width="50" height="50" relative="1" as="geometry">
            <mxPoint x="450" y="215.82" as="sourcePoint" />
            <mxPoint x="500" y="215.82" as="targetPoint" />
            <Array as="points" />
          </mxGeometry>
        </mxCell>
        <mxCell id="RaDb09PuYdzInAXhq24M-16" value="" style="endArrow=classic;html=1;rounded=0;exitX=1;exitY=0.5;exitDx=0;exitDy=0;labelBackgroundColor=none;fontColor=default;" parent="1" edge="1">
          <mxGeometry width="50" height="50" relative="1" as="geometry">
            <mxPoint x="550" y="215.82" as="sourcePoint" />
            <mxPoint x="600" y="215.82" as="targetPoint" />
          </mxGeometry>
        </mxCell>
        <mxCell id="RaDb09PuYdzInAXhq24M-17" value="" style="endArrow=classic;html=1;rounded=0;exitX=1;exitY=0.5;exitDx=0;exitDy=0;labelBackgroundColor=none;fontColor=default;" parent="1" edge="1">
          <mxGeometry width="50" height="50" relative="1" as="geometry">
            <mxPoint x="600" y="205.82" as="sourcePoint" />
            <mxPoint x="550" y="205.82" as="targetPoint" />
          </mxGeometry>
        </mxCell>
        <mxCell id="RaDb09PuYdzInAXhq24M-18" value="" style="endArrow=classic;html=1;rounded=0;exitX=1;exitY=0.5;exitDx=0;exitDy=0;labelBackgroundColor=none;fontColor=default;" parent="1" edge="1">
          <mxGeometry width="50" height="50" relative="1" as="geometry">
            <mxPoint x="500" y="205.82" as="sourcePoint" />
            <mxPoint x="450" y="205.82" as="targetPoint" />
          </mxGeometry>
        </mxCell>
        <mxCell id="RaDb09PuYdzInAXhq24M-19" style="edgeStyle=orthogonalEdgeStyle;rounded=0;orthogonalLoop=1;jettySize=auto;html=1;exitX=0.5;exitY=1;exitDx=0;exitDy=0;labelBackgroundColor=none;fontColor=default;" parent="1" source="RaDb09PuYdzInAXhq24M-3" target="RaDb09PuYdzInAXhq24M-3" edge="1">
          <mxGeometry relative="1" as="geometry" />
        </mxCell>
        <UserObject label="ESP-32" placeholders="1" name="Variable" id="RaDb09PuYdzInAXhq24M-23">
          <mxCell style="text;html=1;strokeColor=none;fillColor=none;align=center;verticalAlign=middle;whiteSpace=wrap;overflow=hidden;labelBackgroundColor=none;rounded=0;" parent="1" vertex="1">
            <mxGeometry x="590" y="181" width="80" height="20" as="geometry" />
          </mxCell>
        </UserObject>
        <UserObject label="5V" placeholders="1" name="Variable" id="RaDb09PuYdzInAXhq24M-24">
          <mxCell style="text;html=1;strokeColor=none;fillColor=none;align=center;verticalAlign=middle;whiteSpace=wrap;overflow=hidden;fontSize=5;labelBackgroundColor=none;rounded=0;" parent="1" vertex="1">
            <mxGeometry x="430" y="171" width="20" height="10" as="geometry" />
          </mxCell>
        </UserObject>
        <UserObject label="GPIO" placeholders="1" name="Variable" id="RaDb09PuYdzInAXhq24M-25">
          <mxCell style="text;html=1;strokeColor=none;fillColor=none;align=center;verticalAlign=middle;whiteSpace=wrap;overflow=hidden;fontSize=5;labelBackgroundColor=none;rounded=0;" parent="1" vertex="1">
            <mxGeometry x="600" y="171" width="20" height="10" as="geometry" />
          </mxCell>
        </UserObject>
        <mxCell id="RaDb09PuYdzInAXhq24M-27" value="" style="endArrow=classic;html=1;rounded=0;exitX=1;exitY=0.5;exitDx=0;exitDy=0;entryX=0;entryY=0.5;entryDx=0;entryDy=0;labelBackgroundColor=none;fontColor=default;" parent="1" target="RaDb09PuYdzInAXhq24M-25" edge="1">
          <mxGeometry width="50" height="50" relative="1" as="geometry">
            <mxPoint x="450" y="175.82" as="sourcePoint" />
            <mxPoint x="500" y="175.82" as="targetPoint" />
            <Array as="points">
              <mxPoint x="480" y="175.82" />
            </Array>
          </mxGeometry>
        </mxCell>
        <mxCell id="RaDb09PuYdzInAXhq24M-30" value="" style="shape=flexArrow;endArrow=classic;startArrow=classic;html=1;rounded=0;width=28.4393063583815;startSize=7.925000000000001;endSize=7.236994219653179;labelBackgroundColor=none;fontColor=default;" parent="1" edge="1">
          <mxGeometry width="100" height="100" relative="1" as="geometry">
            <mxPoint x="629.9100000000001" y="262" as="sourcePoint" />
            <mxPoint x="630.08" y="320.5" as="targetPoint" />
          </mxGeometry>
        </mxCell>
        <mxCell id="RaDb09PuYdzInAXhq24M-31" value="Wi-Fi" style="edgeLabel;html=1;align=center;verticalAlign=middle;resizable=0;points=[];labelBackgroundColor=none;rounded=0;" parent="RaDb09PuYdzInAXhq24M-30" vertex="1" connectable="0">
          <mxGeometry x="-0.0938" relative="1" as="geometry">
            <mxPoint y="4" as="offset" />
          </mxGeometry>
        </mxCell>
        <mxCell id="RaDb09PuYdzInAXhq24M-32" value="" style="verticalLabelPosition=bottom;html=1;verticalAlign=top;align=center;shape=mxgraph.azure.laptop;pointerEvents=1;labelBackgroundColor=none;rounded=0;" parent="1" vertex="1">
          <mxGeometry x="605" y="328.5" width="50" height="30" as="geometry" />
        </mxCell>
        <mxCell id="RaDb09PuYdzInAXhq24M-35" value="" style="rounded=0;whiteSpace=wrap;html=1;labelBackgroundColor=none;" parent="1" vertex="1">
          <mxGeometry x="260" y="161" width="50" height="70" as="geometry" />
        </mxCell>
        <mxCell id="RaDb09PuYdzInAXhq24M-38" value="" style="endArrow=classic;startArrow=classic;html=1;rounded=0;labelBackgroundColor=none;fontColor=default;" parent="1" edge="1">
          <mxGeometry width="50" height="50" relative="1" as="geometry">
            <mxPoint x="360" y="165.85" as="sourcePoint" />
            <mxPoint x="310" y="165.85" as="targetPoint" />
          </mxGeometry>
        </mxCell>
        <UserObject label="Vin" placeholders="1" name="Variable" id="RaDb09PuYdzInAXhq24M-39">
          <mxCell style="text;html=1;strokeColor=none;fillColor=none;align=center;verticalAlign=middle;whiteSpace=wrap;overflow=hidden;fontSize=5;labelBackgroundColor=none;rounded=0;" parent="1" vertex="1">
            <mxGeometry x="355" y="161" width="20" height="10" as="geometry" />
          </mxCell>
        </UserObject>
        <UserObject label="Vin" placeholders="1" name="Variable" id="RaDb09PuYdzInAXhq24M-40">
          <mxCell style="text;html=1;strokeColor=none;fillColor=none;align=center;verticalAlign=middle;whiteSpace=wrap;overflow=hidden;fontSize=5;labelBackgroundColor=none;rounded=0;" parent="1" vertex="1">
            <mxGeometry x="290" y="161" width="20" height="10" as="geometry" />
          </mxCell>
        </UserObject>
        <mxCell id="RaDb09PuYdzInAXhq24M-41" value="" style="endArrow=classic;html=1;rounded=0;exitX=-0.011;exitY=0.118;exitDx=0;exitDy=0;exitPerimeter=0;labelBackgroundColor=none;fontColor=default;" parent="1" edge="1">
          <mxGeometry width="50" height="50" relative="1" as="geometry">
            <mxPoint x="360" y="186.09" as="sourcePoint" />
            <mxPoint x="310.99" y="185.85" as="targetPoint" />
            <Array as="points">
              <mxPoint x="340.99" y="185.85" />
            </Array>
          </mxGeometry>
        </mxCell>
        <UserObject label="PWM1" placeholders="1" name="Variable" id="RaDb09PuYdzInAXhq24M-42">
          <mxCell style="text;html=1;strokeColor=none;fillColor=none;align=center;verticalAlign=middle;whiteSpace=wrap;overflow=hidden;fontSize=5;labelBackgroundColor=none;rounded=0;" parent="1" vertex="1">
            <mxGeometry x="360" y="181" width="20" height="10" as="geometry" />
          </mxCell>
        </UserObject>
        <UserObject label="Control 1" placeholders="1" name="Variable" id="RaDb09PuYdzInAXhq24M-43">
          <mxCell style="text;html=1;strokeColor=none;fillColor=none;align=center;verticalAlign=middle;whiteSpace=wrap;overflow=hidden;fontSize=5;labelBackgroundColor=none;rounded=0;" parent="1" vertex="1">
            <mxGeometry x="280" y="181" width="30" height="10" as="geometry" />
          </mxCell>
        </UserObject>
        <mxCell id="RaDb09PuYdzInAXhq24M-44" value="" style="endArrow=classic;html=1;rounded=0;exitX=-0.011;exitY=0.118;exitDx=0;exitDy=0;exitPerimeter=0;labelBackgroundColor=none;fontColor=default;" parent="1" edge="1">
          <mxGeometry width="50" height="50" relative="1" as="geometry">
            <mxPoint x="360" y="200.09" as="sourcePoint" />
            <mxPoint x="310.99" y="199.85" as="targetPoint" />
            <Array as="points">
              <mxPoint x="340.99" y="199.85" />
            </Array>
          </mxGeometry>
        </mxCell>
        <UserObject label="PWM2" placeholders="1" name="Variable" id="RaDb09PuYdzInAXhq24M-45">
          <mxCell style="text;html=1;strokeColor=none;fillColor=none;align=center;verticalAlign=middle;whiteSpace=wrap;overflow=hidden;fontSize=5;labelBackgroundColor=none;rounded=0;" parent="1" vertex="1">
            <mxGeometry x="360" y="195" width="20" height="10" as="geometry" />
          </mxCell>
        </UserObject>
        <UserObject label="Motor2" placeholders="1" name="Variable" id="RaDb09PuYdzInAXhq24M-46">
          <mxCell style="text;html=1;strokeColor=none;fillColor=none;align=center;verticalAlign=middle;whiteSpace=wrap;overflow=hidden;fontSize=5;labelBackgroundColor=none;rounded=0;" parent="1" vertex="1">
            <mxGeometry x="260" y="190" width="20" height="10" as="geometry" />
          </mxCell>
        </UserObject>
        <UserObject label="Motor driver&lt;br&gt;L293D" placeholders="1" name="Variable" id="RaDb09PuYdzInAXhq24M-47">
          <mxCell style="text;strokeColor=none;fillColor=none;align=center;verticalAlign=middle;overflow=hidden;spacing=0;whiteSpace=wrap;html=1;horizontal=1;spacingTop=0;fontSize=8;labelBackgroundColor=none;rounded=0;" parent="1" vertex="1">
            <mxGeometry x="260" y="203.5" width="50" height="34" as="geometry" />
          </mxCell>
        </UserObject>
        <mxCell id="-5jercmlGQS8pLjLwWJE-4" style="edgeStyle=orthogonalEdgeStyle;rounded=0;orthogonalLoop=1;jettySize=auto;html=1;exitX=0;exitY=0.5;exitDx=0;exitDy=0;entryX=0;entryY=0.5;entryDx=0;entryDy=0;labelBackgroundColor=none;fontColor=default;" parent="1" source="RaDb09PuYdzInAXhq24M-49" target="RaDb09PuYdzInAXhq24M-118" edge="1">
          <mxGeometry relative="1" as="geometry">
            <mxPoint x="160" y="250" as="targetPoint" />
            <Array as="points">
              <mxPoint x="170" y="170" />
              <mxPoint x="170" y="250" />
            </Array>
          </mxGeometry>
        </mxCell>
        <mxCell id="RaDb09PuYdzInAXhq24M-49" value="" style="rounded=0;whiteSpace=wrap;html=1;labelBackgroundColor=none;" parent="1" vertex="1">
          <mxGeometry x="190" y="160" width="50" height="20" as="geometry" />
        </mxCell>
        <mxCell id="RaDb09PuYdzInAXhq24M-50" value="" style="rounded=0;whiteSpace=wrap;html=1;labelBackgroundColor=none;" parent="1" vertex="1">
          <mxGeometry x="190" y="186.5" width="50" height="20" as="geometry" />
        </mxCell>
        <UserObject label="Motor1" placeholders="1" name="Variable" id="RaDb09PuYdzInAXhq24M-51">
          <mxCell style="text;html=1;strokeColor=none;fillColor=none;align=center;verticalAlign=middle;whiteSpace=wrap;overflow=hidden;fontSize=5;labelBackgroundColor=none;rounded=0;" parent="1" vertex="1">
            <mxGeometry x="260" y="165" width="20" height="10" as="geometry" />
          </mxCell>
        </UserObject>
        <UserObject label="Control&amp;nbsp;&lt;span style=&quot;background-color: initial;&quot;&gt;2&lt;/span&gt;" placeholders="1" name="Variable" id="RaDb09PuYdzInAXhq24M-53">
          <mxCell style="text;html=1;strokeColor=none;fillColor=none;align=center;verticalAlign=middle;whiteSpace=wrap;overflow=hidden;fontSize=5;labelBackgroundColor=none;rounded=0;" parent="1" vertex="1">
            <mxGeometry x="280" y="194" width="30" height="10" as="geometry" />
          </mxCell>
        </UserObject>
        <mxCell id="RaDb09PuYdzInAXhq24M-54" value="" style="endArrow=classic;html=1;rounded=0;labelBackgroundColor=none;fontColor=default;" parent="1" edge="1">
          <mxGeometry width="50" height="50" relative="1" as="geometry">
            <mxPoint x="260" y="171" as="sourcePoint" />
            <mxPoint x="240.99" y="171" as="targetPoint" />
            <Array as="points" />
          </mxGeometry>
        </mxCell>
        <mxCell id="RaDb09PuYdzInAXhq24M-55" value="" style="endArrow=classic;html=1;rounded=0;labelBackgroundColor=none;fontColor=default;" parent="1" edge="1">
          <mxGeometry width="50" height="50" relative="1" as="geometry">
            <mxPoint x="260" y="195.88" as="sourcePoint" />
            <mxPoint x="240.99" y="195.88" as="targetPoint" />
            <Array as="points" />
          </mxGeometry>
        </mxCell>
        <UserObject label="&lt;font style=&quot;font-size: 6px;&quot;&gt;Motor 1&lt;br style=&quot;font-size: 6px;&quot;&gt;JGA25-370&lt;/font&gt;" placeholders="1" name="Variable" id="RaDb09PuYdzInAXhq24M-57">
          <mxCell style="text;strokeColor=none;fillColor=none;align=center;verticalAlign=middle;overflow=hidden;spacing=0;whiteSpace=wrap;html=1;horizontal=1;spacingTop=0;fontSize=6;labelBackgroundColor=none;rounded=0;" parent="1" vertex="1">
            <mxGeometry x="195" y="155.5" width="40" height="29" as="geometry" />
          </mxCell>
        </UserObject>
        <mxCell id="RaDb09PuYdzInAXhq24M-76" style="edgeStyle=orthogonalEdgeStyle;rounded=0;orthogonalLoop=1;jettySize=auto;html=1;exitX=0;exitY=0.5;exitDx=0;exitDy=0;labelBackgroundColor=none;fontColor=default;" parent="1" source="RaDb09PuYdzInAXhq24M-59" edge="1">
          <mxGeometry relative="1" as="geometry">
            <mxPoint x="160" y="281.5120481927711" as="targetPoint" />
          </mxGeometry>
        </mxCell>
        <mxCell id="RaDb09PuYdzInAXhq24M-59" value="" style="rounded=0;whiteSpace=wrap;html=1;labelBackgroundColor=none;" parent="1" vertex="1">
          <mxGeometry x="190" y="271.5" width="50" height="20" as="geometry" />
        </mxCell>
        <mxCell id="RaDb09PuYdzInAXhq24M-77" style="edgeStyle=orthogonalEdgeStyle;rounded=0;orthogonalLoop=1;jettySize=auto;html=1;exitX=0;exitY=0.5;exitDx=0;exitDy=0;labelBackgroundColor=none;fontColor=default;" parent="1" source="RaDb09PuYdzInAXhq24M-60" edge="1">
          <mxGeometry relative="1" as="geometry">
            <mxPoint x="160" y="303.43975903614455" as="targetPoint" />
          </mxGeometry>
        </mxCell>
        <mxCell id="RaDb09PuYdzInAXhq24M-60" value="" style="rounded=0;whiteSpace=wrap;html=1;labelBackgroundColor=none;" parent="1" vertex="1">
          <mxGeometry x="190" y="293.5" width="50" height="20" as="geometry" />
        </mxCell>
        <mxCell id="RaDb09PuYdzInAXhq24M-78" style="edgeStyle=orthogonalEdgeStyle;rounded=0;orthogonalLoop=1;jettySize=auto;html=1;exitX=0;exitY=0.5;exitDx=0;exitDy=0;labelBackgroundColor=none;fontColor=default;" parent="1" source="RaDb09PuYdzInAXhq24M-61" edge="1">
          <mxGeometry relative="1" as="geometry">
            <mxPoint x="160" y="325.6084337349397" as="targetPoint" />
          </mxGeometry>
        </mxCell>
        <mxCell id="RaDb09PuYdzInAXhq24M-61" value="" style="rounded=0;whiteSpace=wrap;html=1;labelBackgroundColor=none;" parent="1" vertex="1">
          <mxGeometry x="190" y="315.5" width="50" height="20" as="geometry" />
        </mxCell>
        <mxCell id="RaDb09PuYdzInAXhq24M-79" style="edgeStyle=orthogonalEdgeStyle;rounded=0;orthogonalLoop=1;jettySize=auto;html=1;exitX=0;exitY=0.5;exitDx=0;exitDy=0;labelBackgroundColor=none;fontColor=default;" parent="1" source="RaDb09PuYdzInAXhq24M-62" edge="1">
          <mxGeometry relative="1" as="geometry">
            <mxPoint x="160" y="347.53614457831316" as="targetPoint" />
          </mxGeometry>
        </mxCell>
        <mxCell id="RaDb09PuYdzInAXhq24M-62" value="" style="rounded=0;whiteSpace=wrap;html=1;labelBackgroundColor=none;" parent="1" vertex="1">
          <mxGeometry x="190" y="337.5" width="50" height="20" as="geometry" />
        </mxCell>
        <mxCell id="RaDb09PuYdzInAXhq24M-65" style="edgeStyle=orthogonalEdgeStyle;rounded=0;orthogonalLoop=1;jettySize=auto;html=1;exitX=0;exitY=0.5;exitDx=0;exitDy=0;entryX=1;entryY=0.5;entryDx=0;entryDy=0;labelBackgroundColor=none;fontColor=default;" parent="1" source="RaDb09PuYdzInAXhq24M-63" target="RaDb09PuYdzInAXhq24M-59" edge="1">
          <mxGeometry relative="1" as="geometry" />
        </mxCell>
        <mxCell id="RaDb09PuYdzInAXhq24M-68" style="edgeStyle=orthogonalEdgeStyle;rounded=0;orthogonalLoop=1;jettySize=auto;html=1;exitX=0;exitY=0.5;exitDx=0;exitDy=0;entryX=1;entryY=0.5;entryDx=0;entryDy=0;labelBackgroundColor=none;fontColor=default;" parent="1" source="RaDb09PuYdzInAXhq24M-63" target="RaDb09PuYdzInAXhq24M-61" edge="1">
          <mxGeometry relative="1" as="geometry" />
        </mxCell>
        <mxCell id="RaDb09PuYdzInAXhq24M-69" style="edgeStyle=orthogonalEdgeStyle;rounded=0;orthogonalLoop=1;jettySize=auto;html=1;exitX=0;exitY=0.5;exitDx=0;exitDy=0;entryX=1;entryY=0.5;entryDx=0;entryDy=0;labelBackgroundColor=none;fontColor=default;" parent="1" source="RaDb09PuYdzInAXhq24M-63" target="RaDb09PuYdzInAXhq24M-62" edge="1">
          <mxGeometry relative="1" as="geometry" />
        </mxCell>
        <mxCell id="RaDb09PuYdzInAXhq24M-63" value="&lt;font style=&quot;font-size: 7px;&quot;&gt;Multiplexer&lt;br style=&quot;font-size: 7px;&quot;&gt;CD74HC4067&lt;/font&gt;" style="rounded=0;whiteSpace=wrap;html=1;fontSize=7;labelBackgroundColor=none;" parent="1" vertex="1">
          <mxGeometry x="280" y="298.5" width="50" height="30" as="geometry" />
        </mxCell>
        <mxCell id="RaDb09PuYdzInAXhq24M-66" style="edgeStyle=orthogonalEdgeStyle;rounded=0;orthogonalLoop=1;jettySize=auto;html=1;exitX=0;exitY=0.5;exitDx=0;exitDy=0;entryX=1;entryY=0.4;entryDx=0;entryDy=0;entryPerimeter=0;labelBackgroundColor=none;fontColor=default;" parent="1" source="RaDb09PuYdzInAXhq24M-63" target="RaDb09PuYdzInAXhq24M-60" edge="1">
          <mxGeometry relative="1" as="geometry" />
        </mxCell>
        <UserObject label="US1&lt;br&gt;HC-SR04" placeholders="1" name="Variable" id="RaDb09PuYdzInAXhq24M-70">
          <mxCell style="text;strokeColor=none;fillColor=none;align=center;verticalAlign=middle;overflow=hidden;spacing=0;whiteSpace=wrap;html=1;horizontal=1;spacingTop=0;fontSize=7;labelBackgroundColor=none;rounded=0;" parent="1" vertex="1">
            <mxGeometry x="195" y="271.5" width="40" height="19" as="geometry" />
          </mxCell>
        </UserObject>
        <UserObject label="US 2&lt;br&gt;HC-SR04" placeholders="1" name="Variable" id="RaDb09PuYdzInAXhq24M-71">
          <mxCell style="text;strokeColor=none;fillColor=none;align=center;verticalAlign=middle;overflow=hidden;spacing=0;whiteSpace=wrap;html=1;horizontal=1;spacingTop=0;fontSize=7;labelBackgroundColor=none;rounded=0;" parent="1" vertex="1">
            <mxGeometry x="195" y="294.5" width="40" height="19" as="geometry" />
          </mxCell>
        </UserObject>
        <UserObject label="US 3&lt;br&gt;HC-SR04" placeholders="1" name="Variable" id="RaDb09PuYdzInAXhq24M-72">
          <mxCell style="text;strokeColor=none;fillColor=none;align=center;verticalAlign=middle;overflow=hidden;spacing=0;whiteSpace=wrap;html=1;horizontal=1;spacingTop=0;fontSize=7;labelBackgroundColor=none;rounded=0;" parent="1" vertex="1">
            <mxGeometry x="195" y="315.5" width="40" height="19" as="geometry" />
          </mxCell>
        </UserObject>
        <UserObject label="US 4&lt;div&gt;HC-SR04&lt;/div&gt;" placeholders="1" name="Variable" id="RaDb09PuYdzInAXhq24M-73">
          <mxCell style="text;strokeColor=none;fillColor=none;align=center;verticalAlign=middle;overflow=hidden;spacing=0;whiteSpace=wrap;html=1;horizontal=1;spacingTop=0;fontSize=7;labelBackgroundColor=none;rounded=0;" parent="1" vertex="1">
            <mxGeometry x="195" y="337.5" width="40" height="19" as="geometry" />
          </mxCell>
        </UserObject>
        <mxCell id="RaDb09PuYdzInAXhq24M-75" value="" style="endArrow=classic;html=1;rounded=0;entryX=0.147;entryY=1.003;entryDx=0;entryDy=0;entryPerimeter=0;endSize=6;labelBackgroundColor=none;fontColor=default;" parent="1" target="RaDb09PuYdzInAXhq24M-2" edge="1">
          <mxGeometry width="50" height="50" relative="1" as="geometry">
            <mxPoint x="160" y="281" as="sourcePoint" />
            <mxPoint x="380" y="349" as="targetPoint" />
            <Array as="points">
              <mxPoint x="160" y="360" />
              <mxPoint x="373" y="360" />
            </Array>
          </mxGeometry>
        </mxCell>
        <mxCell id="RaDb09PuYdzInAXhq24M-80" style="edgeStyle=orthogonalEdgeStyle;rounded=0;orthogonalLoop=1;jettySize=auto;html=1;exitX=0;exitY=0.5;exitDx=0;exitDy=0;labelBackgroundColor=none;fontColor=default;" parent="1" edge="1">
          <mxGeometry relative="1" as="geometry">
            <mxPoint x="330" y="303.87975903614455" as="targetPoint" />
            <mxPoint x="360" y="303.94" as="sourcePoint" />
          </mxGeometry>
        </mxCell>
        <mxCell id="RaDb09PuYdzInAXhq24M-81" style="edgeStyle=orthogonalEdgeStyle;rounded=0;orthogonalLoop=1;jettySize=auto;html=1;exitX=0;exitY=0.5;exitDx=0;exitDy=0;labelBackgroundColor=none;fontColor=default;" parent="1" edge="1">
          <mxGeometry relative="1" as="geometry">
            <mxPoint x="330" y="324.87975903614455" as="targetPoint" />
            <mxPoint x="360" y="324.94" as="sourcePoint" />
          </mxGeometry>
        </mxCell>
        <UserObject label="Select 0" placeholders="1" name="Variable" id="RaDb09PuYdzInAXhq24M-82">
          <mxCell style="text;html=1;strokeColor=none;fillColor=none;align=center;verticalAlign=middle;whiteSpace=wrap;overflow=hidden;fontSize=5;labelBackgroundColor=none;rounded=0;" parent="1" vertex="1">
            <mxGeometry x="355" y="298" width="30" height="10" as="geometry" />
          </mxCell>
        </UserObject>
        <UserObject label="Select 1" placeholders="1" name="Variable" id="RaDb09PuYdzInAXhq24M-83">
          <mxCell style="text;html=1;strokeColor=none;fillColor=none;align=center;verticalAlign=middle;whiteSpace=wrap;overflow=hidden;fontSize=5;labelBackgroundColor=none;rounded=0;" parent="1" vertex="1">
            <mxGeometry x="355" y="319" width="30" height="10" as="geometry" />
          </mxCell>
        </UserObject>
        <UserObject label="Echo 0 to 3" placeholders="1" name="Variable" id="RaDb09PuYdzInAXhq24M-84">
          <mxCell style="text;html=1;strokeColor=none;fillColor=none;align=center;verticalAlign=middle;whiteSpace=wrap;overflow=hidden;fontSize=5;labelBackgroundColor=none;rounded=0;" parent="1" vertex="1">
            <mxGeometry x="360" y="328.5" width="30" height="10" as="geometry" />
          </mxCell>
        </UserObject>
        <mxCell id="RaDb09PuYdzInAXhq24M-109" style="edgeStyle=orthogonalEdgeStyle;rounded=0;orthogonalLoop=1;jettySize=auto;html=1;exitX=0;exitY=0.5;exitDx=0;exitDy=0;entryX=1;entryY=0.5;entryDx=0;entryDy=0;labelBackgroundColor=none;fontColor=default;" parent="1" source="RaDb09PuYdzInAXhq24M-106" target="RaDb09PuYdzInAXhq24M-107" edge="1">
          <mxGeometry relative="1" as="geometry" />
        </mxCell>
        <mxCell id="RaDb09PuYdzInAXhq24M-106" value="11.1V batteries" style="rounded=0;whiteSpace=wrap;html=1;labelBackgroundColor=none;" parent="1" vertex="1">
          <mxGeometry x="380" y="100" width="70" height="40" as="geometry" />
        </mxCell>
        <mxCell id="RaDb09PuYdzInAXhq24M-113" style="edgeStyle=orthogonalEdgeStyle;rounded=0;orthogonalLoop=1;jettySize=auto;html=1;exitX=0.5;exitY=1;exitDx=0;exitDy=0;labelBackgroundColor=none;fontColor=default;" parent="1" source="RaDb09PuYdzInAXhq24M-107" edge="1">
          <mxGeometry relative="1" as="geometry">
            <mxPoint x="335.015873015873" y="165" as="targetPoint" />
          </mxGeometry>
        </mxCell>
        <mxCell id="RaDb09PuYdzInAXhq24M-107" value="&lt;font style=&quot;font-size: 8px;&quot;&gt;Voltage&lt;br style=&quot;font-size: 8px;&quot;&gt;regulator&lt;br&gt;LM2596&lt;/font&gt;" style="rounded=0;whiteSpace=wrap;html=1;fontSize=8;labelBackgroundColor=none;" parent="1" vertex="1">
          <mxGeometry x="310" y="100" width="50" height="40" as="geometry" />
        </mxCell>
        <mxCell id="RaDb09PuYdzInAXhq24M-114" value="" style="endArrow=classic;html=1;rounded=0;entryX=0;entryY=0.5;entryDx=0;entryDy=0;exitX=0;exitY=0.5;exitDx=0;exitDy=0;labelBackgroundColor=none;fontColor=default;" parent="1" edge="1">
          <mxGeometry width="50" height="50" relative="1" as="geometry">
            <mxPoint x="190" y="195" as="sourcePoint" />
            <mxPoint x="360" y="238.99999999999994" as="targetPoint" />
            <Array as="points">
              <mxPoint x="180" y="195" />
              <mxPoint x="180" y="239" />
              <mxPoint x="340" y="239" />
            </Array>
          </mxGeometry>
        </mxCell>
        <UserObject label="&lt;font style=&quot;font-size: 8px;&quot;&gt;Arduino&lt;/font&gt;&lt;div style=&quot;font-size: 8px;&quot;&gt;&lt;font style=&quot;font-size: 8px;&quot;&gt;ATMEGA 328P&lt;/font&gt;&lt;/div&gt;&lt;div style=&quot;font-size: 8px;&quot;&gt;&lt;br style=&quot;font-size: 8px;&quot;&gt;&lt;/div&gt;" placeholders="1" name="Variable" id="RaDb09PuYdzInAXhq24M-117">
          <mxCell style="text;strokeColor=none;fillColor=none;align=center;verticalAlign=middle;overflow=hidden;spacing=0;whiteSpace=wrap;html=1;horizontal=1;spacingTop=0;fontSize=8;labelBackgroundColor=none;rounded=0;" parent="1" vertex="1">
            <mxGeometry x="357.5" y="206.5" width="85" height="31" as="geometry" />
          </mxCell>
        </UserObject>
        <UserObject label="Encoder 1" placeholders="1" name="Variable" id="RaDb09PuYdzInAXhq24M-118">
          <mxCell style="text;html=1;strokeColor=none;fillColor=none;align=center;verticalAlign=middle;whiteSpace=wrap;overflow=hidden;fontSize=5;labelBackgroundColor=none;rounded=0;" parent="1" vertex="1">
            <mxGeometry x="360" y="245" width="27.5" height="10" as="geometry" />
          </mxCell>
        </UserObject>
        <UserObject label="Data" placeholders="1" name="Variable" id="j04gYKq03ERtU7u-vYHW-2">
          <mxCell style="text;html=1;strokeColor=none;fillColor=none;align=center;verticalAlign=middle;whiteSpace=wrap;overflow=hidden;fontSize=5;labelBackgroundColor=none;rounded=0;" parent="1" vertex="1">
            <mxGeometry x="460" y="217" width="30" height="10" as="geometry" />
          </mxCell>
        </UserObject>
        <UserObject label="Commands" placeholders="1" name="Variable" id="j04gYKq03ERtU7u-vYHW-3">
          <mxCell style="text;html=1;strokeColor=none;fillColor=none;align=center;verticalAlign=middle;whiteSpace=wrap;overflow=hidden;fontSize=5;labelBackgroundColor=none;rounded=0;" parent="1" vertex="1">
            <mxGeometry x="460" y="194" width="30" height="10" as="geometry" />
          </mxCell>
        </UserObject>
        <UserObject label="Encoder 2" placeholders="1" name="Variable" id="j04gYKq03ERtU7u-vYHW-4">
          <mxCell style="text;html=1;strokeColor=none;fillColor=none;align=center;verticalAlign=middle;whiteSpace=wrap;overflow=hidden;fontSize=5;labelBackgroundColor=none;rounded=0;" parent="1" vertex="1">
            <mxGeometry x="360" y="233" width="27.5" height="10" as="geometry" />
          </mxCell>
        </UserObject>
        <mxCell id="L-HagWKo3SPO7yWEXJEC-6" style="edgeStyle=orthogonalEdgeStyle;rounded=0;orthogonalLoop=1;jettySize=auto;html=1;exitX=0;exitY=0.5;exitDx=0;exitDy=0;labelBackgroundColor=none;fontColor=default;" parent="1" edge="1">
          <mxGeometry relative="1" as="geometry">
            <mxPoint x="260" y="288.4324324324324" as="targetPoint" />
            <mxPoint x="360" y="288.5" as="sourcePoint" />
          </mxGeometry>
        </mxCell>
        <UserObject label="Trig" placeholders="1" name="Variable" id="L-HagWKo3SPO7yWEXJEC-5">
          <mxCell style="text;html=1;strokeColor=none;fillColor=none;align=center;verticalAlign=middle;whiteSpace=wrap;overflow=hidden;fontSize=5;labelBackgroundColor=none;rounded=0;" parent="1" vertex="1">
            <mxGeometry x="360" y="281.5" width="10" height="10" as="geometry" />
          </mxCell>
        </UserObject>
        <UserObject label="&lt;div style=&quot;font-size: 8px;&quot;&gt;Level&amp;nbsp;&lt;br&gt;Shifter&lt;br&gt;TXS01008E&lt;/div&gt;" placeholders="1" name="Variable" id="-5jercmlGQS8pLjLwWJE-1">
          <mxCell style="text;strokeColor=none;fillColor=none;align=center;verticalAlign=middle;overflow=hidden;spacing=0;whiteSpace=wrap;html=1;horizontal=1;spacingTop=0;fontSize=8;labelBackgroundColor=none;rounded=0;" parent="1" vertex="1">
            <mxGeometry x="503.13" y="206.5" width="43.75" height="31" as="geometry" />
          </mxCell>
        </UserObject>
        <UserObject label="&lt;font style=&quot;font-size: 6px;&quot;&gt;Motor 2&lt;br style=&quot;font-size: 6px;&quot;&gt;JGA25-370&lt;/font&gt;" placeholders="1" name="Variable" id="-5jercmlGQS8pLjLwWJE-3">
          <mxCell style="text;strokeColor=none;fillColor=none;align=center;verticalAlign=middle;overflow=hidden;spacing=0;whiteSpace=wrap;html=1;horizontal=1;spacingTop=0;fontSize=6;labelBackgroundColor=none;rounded=0;" parent="1" vertex="1">
            <mxGeometry x="195" y="181.5" width="40" height="29" as="geometry" />
          </mxCell>
        </UserObject>
      </root>
    </mxGraphModel>
  </diagram>
</mxfile>
